<svg width="115" height="115" viewBox="0 0 115 115" fill="none" xmlns="http://www.w3.org/2000/svg">
<path d="M88.9721 35.2419C88.6115 35.2419 88.2489 35.1362 87.9347 34.9266C87.3268 34.5185 87.0163 33.7952 87.139 33.0736L88.3605 25.9677H83.3948C80.3198 25.9677 77.8174 23.4711 77.8174 20.4032V5.56452C77.8174 2.49661 80.3198 0 83.3948 0H109.423C112.498 0 115 2.49661 115 5.56452V20.4032C115 23.4711 112.498 25.9677 109.423 25.9677H104.379L89.9575 34.96C89.6563 35.1473 89.3142 35.2419 88.9721 35.2419Z" fill="#FFC232"/>
<path d="M18.4596 78.0342L23.2671 73.2378L12.113 62.1094L7.30552 66.9058L18.4596 78.0342Z" fill="#FFC232"/>
<path d="M48.2981 107.807L53.6487 102.916L42.4939 91.7866L37.1099 96.6444L48.2981 107.807Z" fill="#FFC232"/>
<path d="M89.1072 87.2775C87.6031 82.7795 83.7659 79.4594 79.0883 78.6099L66.6638 76.3544V75.3936C68.8259 74.1416 70.7074 72.4666 72.2058 70.4838H75.9594C79.0344 70.4838 81.5368 67.9872 81.5368 64.9193V42.6612C81.5368 29.3658 70.6944 18.5483 57.3681 18.5483C44.0419 18.5483 33.1995 29.3658 33.1995 42.6612V55.6451C33.1995 59.2212 35.7484 62.2131 39.1283 62.9105C40.1712 68.2413 43.5102 72.7523 48.0725 75.3936V76.3544L35.6461 78.6099C30.9704 79.4594 27.1313 82.7795 25.6291 87.2775L24.8855 89.5052L18.5533 83.1876C17.8282 82.4642 17.8282 81.2864 18.5533 80.563L25.8968 73.2383L12.1133 59.4865L3.81414 67.7665C1.35637 70.2186 0.00292969 73.4794 0.00292969 76.9479C0.00292969 80.4165 1.35637 83.6754 3.81414 86.1275L28.9402 111.196C31.398 113.648 34.6663 115 38.1429 115C41.6195 115 44.886 113.648 47.2861 111.251L56.3419 102.973L53.5179 100.161H93.411L89.1072 87.2775ZM57.3681 82.6998L51.7908 77.1353V77.0481C53.5532 77.6008 55.4254 77.9032 57.3681 77.9032C59.3109 77.9032 61.1831 77.6008 62.9455 77.0481V77.1353L57.3681 82.6998ZM75.9594 66.7741H74.3959C74.935 65.5481 75.344 64.2553 75.608 62.9105C76.4037 62.7454 77.1362 62.4301 77.8185 62.0332V64.9193C77.8185 65.9432 76.9838 66.7741 75.9594 66.7741ZM75.9594 52.4511C77.0656 53.0947 77.8185 54.2781 77.8185 55.6451C77.8185 57.0121 77.0656 58.1955 75.9594 58.8391V52.4511ZM36.9177 55.6451C36.9177 54.2781 37.6707 53.0947 38.7769 52.4511V58.8391C37.6707 58.1955 36.9177 57.0121 36.9177 55.6451ZM38.7769 46.3709V48.4891C38.115 48.6616 37.4941 48.9213 36.9177 49.257V42.6612C36.9177 31.4116 46.0925 22.258 57.3681 22.258C68.6437 22.258 77.8185 31.4116 77.8185 42.6612V49.257C77.2422 48.9213 76.6213 48.6598 75.9594 48.4891V46.3709H74.1003C68.6029 46.3709 63.4345 44.2341 59.5452 40.3557L57.3681 38.1837L55.1911 40.3557C51.3018 44.2341 46.1334 46.3709 40.636 46.3709H38.7769ZM42.4951 59.3548V50.0101C48.0781 49.5909 53.2836 47.2928 57.3681 43.418C61.4526 47.2928 66.6582 49.5928 72.2412 50.0101V59.3548C72.2412 62.0591 71.5012 64.5891 70.2296 66.7741H57.3681V70.4838H67.1732C64.5518 72.7857 61.1254 74.1935 57.3681 74.1935C49.1675 74.1935 42.4951 67.5365 42.4951 59.3548ZM20.6374 73.2383L18.6184 75.2526L10.0924 66.7463L12.1114 64.732L20.6374 73.2383ZM38.1392 111.29C35.6573 111.29 33.3222 110.324 31.5653 108.573L6.43923 83.5066C4.68421 81.7557 3.71746 79.426 3.71746 76.9498C3.71746 74.4717 4.68421 72.1421 6.43923 70.3911L7.46175 69.3709L15.9877 77.8772L15.9208 77.944C13.7475 80.1141 13.7475 83.6439 15.9208 85.8141L29.2526 99.1151C30.3067 100.165 31.7066 100.746 33.1976 100.746C34.6887 100.746 36.0886 100.167 37.0739 99.18L37.2133 99.0558L45.7783 107.601L44.7112 108.577C42.9562 110.324 40.6211 111.29 38.1392 111.29ZM48.5224 105.09L39.976 96.5629L42.4319 94.3482L50.9635 102.86L48.5224 105.09ZM49.7996 96.4516L42.5583 89.227L34.512 96.4887C33.8111 97.1917 32.586 97.1917 31.8832 96.4887L27.8229 92.4377L29.154 88.4498C30.2268 85.2372 32.969 82.8649 36.3098 82.2565L49.3051 79.9008L57.3681 87.9453L65.4293 79.9027L78.4228 82.2583C81.7636 82.8667 84.5058 85.2372 85.5785 88.4516L88.2538 96.4516H49.7996Z" fill="black"/>
<path d="M107.563 7.41943H85.2539V11.1291H107.563V7.41943Z" fill="black"/>
<path d="M100.127 14.8389H85.2539V18.5485H100.127V14.8389Z" fill="black"/>
<path d="M107.563 14.8389H103.845V18.5485H107.563V14.8389Z" fill="black"/>
<path d="M17.4237 46.1057L15.5107 42.9246L10.4725 45.9406C15.7412 24.5487 35.0222 9.27413 57.3671 9.27413C62.251 9.27413 67.0699 9.99752 71.6898 11.4257L72.7904 7.883C67.8135 6.34349 62.6247 5.56445 57.3671 5.56445C33.0757 5.56445 12.1513 22.3285 6.71145 45.7124L3.1884 39.853L0 41.7616L6.53483 52.6254L17.4237 46.1057Z" fill="black"/>
<path d="M114.098 41.0715L103.209 34.5518L96.6746 45.4155L99.863 47.3242L103.117 41.9136C104.829 46.9124 105.704 52.1412 105.704 57.4998C105.704 68.5305 101.875 79.3146 94.9233 87.8635L97.8106 90.2006C105.299 80.9932 109.423 69.3782 109.423 57.4998C109.423 51.8259 108.506 46.2855 106.719 40.9806L112.183 44.2507L114.098 41.0715Z" fill="black"/>
</svg>
