<?xml version="1.0" encoding="UTF-8" standalone="no"?>
<!DOCTYPE svg PUBLIC "-//W3C//DTD SVG 1.1//EN" "http://www.w3.org/Graphics/SVG/1.1/DTD/svg11.dtd">
<svg width="115" height="115" viewBox="0 0 115 115" fill="none" xmlns="http://www.w3.org/2000/svg">
<path d="M102.422 41.0059C106.391 41.0059 109.609 44.2373 109.609 48.2248V109.586H5.39062V48.2248C5.39062 44.2373 8.60886 41.0059 12.5781 41.0059H102.422Z" fill="#E0E0E0"/>
<path d="M14.375 51.8345H100.625V95.1482H14.375V51.8345Z" fill="#A6E7FF"/>
<path d="M66.4844 102.367C66.4844 104.36 64.8753 105.976 62.8906 105.976H52.1094C50.1247 105.976 48.5156 104.36 48.5156 102.367H1.79688V105.976C1.79688 109.963 5.01511 113.195 8.98438 113.195H106.016C109.985 113.195 113.203 109.963 113.203 105.976V102.367H66.4844Z" fill="#EEEEEE"/>
<path d="M93.4375 5.81358L88.3039 2.2041L83.1704 5.81358L78.0368 2.2041L72.905 5.81358L67.7706 2.2041L62.6371 5.81358L57.5035 2.2041L52.37 5.81358L47.2364 2.2041L42.1011 5.81358L36.9675 2.2041L31.8331 5.81358L26.6978 2.2041L21.5625 5.81358V95.1481H93.4375V5.81358Z" fill="#FBD317"/>
<path d="M33.8696 62.2394L41.4923 54.5825L51.6576 64.7914L44.0341 72.4484L33.8696 62.2394Z" fill="#FF7043"/>
<path d="M41.4932 54.583L51.6585 64.7919L55.4698 60.9639L71.9865 54.583L51.6585 34.166L45.3045 50.755L41.4932 54.583Z" fill="#FF8A65"/>
<path d="M46.5757 69.8965L51.6575 64.7925L59.281 72.4494C60.6848 73.8585 60.6848 76.1443 59.281 77.5534C57.8781 78.9634 55.6022 78.9634 54.1984 77.5534L46.5757 69.8965Z" fill="#90A4AE"/>
<path d="M66.9065 36.7167L74.5292 29.0615L77.0701 31.6135L69.4474 39.2696L66.9065 36.7167Z" fill="white"/>
<path d="M74.0632 45.1845L84.4786 42.3813L85.4086 45.8683L74.9933 48.6706L74.0632 45.1845Z" fill="white"/>
<path d="M57.5457 31.1462L60.3366 20.687L63.8075 21.6211L61.0174 32.0803L57.5457 31.1462Z" fill="white"/>
<path d="M28.75 13.9346H32.3438V35.5914H28.75V13.9346Z" fill="white"/>
<path d="M35.9375 13.9346H39.5312V28.3725H35.9375V13.9346Z" fill="white"/>
<path d="M43.125 13.9346H46.7188V21.1535H43.125V13.9346Z" fill="white"/>
<path d="M82.6562 68.0767H86.25V89.7335H82.6562V68.0767Z" fill="white"/>
<path d="M75.4688 75.2954H79.0625V89.7333H75.4688V75.2954Z" fill="white"/>
<path d="M68.2812 82.5146H71.875V89.7336H68.2812V82.5146Z" fill="white"/>
<path d="M111.406 100.562V48.2247C111.4 43.2432 107.382 39.2063 102.422 39.201H95.2344V4.87314L88.3039 0L83.1704 3.60947L78.0386 0L72.9024 3.60947L67.7706 0L62.6371 3.60947L57.5 0L52.3682 3.60947L47.2329 0L42.0993 3.60947L36.9632 0L31.8296 3.60947L26.6925 0L19.7656 4.87314V39.201H12.5781C7.61829 39.2063 3.59989 43.2432 3.59375 48.2247V100.562H0V105.976C0.00614167 110.957 4.02454 114.994 8.98438 115H106.016C110.975 114.994 114.994 110.957 115 105.976V100.562H111.406ZM95.2344 53.6389H98.8281V93.3432H95.2344V53.6389ZM23.3594 6.75366L26.6961 4.40698L31.8331 8.01645L36.9675 4.40698L42.1029 8.01645L47.2364 4.40698L52.3717 8.01645L57.5035 4.40698L62.6371 8.01645L67.7706 4.40698L72.9024 8.01645L78.0386 4.40698L83.1704 8.01645L88.3039 4.40698L91.6406 6.75366V93.3432H23.3594V6.75366ZM7.1875 48.2247C7.1875 45.2339 9.60117 42.8105 12.5781 42.8105H19.7656V50.0295H12.5781V96.9526H102.422V50.0295H95.2344V42.8105H102.422C105.399 42.8105 107.812 45.2339 107.812 48.2247V100.562H64.6875V102.367C64.6875 103.363 63.8829 104.172 62.8906 104.172H52.1094C51.1171 104.172 50.3125 103.363 50.3125 102.367V100.562H7.1875V48.2247ZM19.7656 53.6389V93.3432H16.1719V53.6389H19.7656ZM111.406 105.976C111.406 108.966 108.993 111.391 106.016 111.391H8.98438C6.00742 111.391 3.59375 108.966 3.59375 105.976V104.172H47.0258C47.79 106.333 49.8256 107.778 52.1094 107.781H62.8906C65.1744 107.778 67.21 106.333 67.9742 104.172H111.406V105.976Z" fill="black"/>
<path d="M75.2116 55.2629L50.974 30.9263L43.7628 49.7509L40.2226 53.3066L31.3303 62.2413L44.0339 75.0013L46.5748 72.4493L52.9288 78.8294C55.0336 80.9443 58.4466 80.9452 60.5532 78.8311C62.6589 76.7171 62.6598 73.2882 60.555 71.1733L54.2028 64.7933L56.476 62.5109L75.2116 55.2629ZM44.0339 69.8973L36.4121 62.2413L41.493 57.1364L49.1175 64.7933L44.0339 69.8973ZM58.0106 73.7253C58.4773 74.1783 58.6651 74.8498 58.5002 75.4807C58.3361 76.1117 57.8448 76.6043 57.2166 76.7691C56.5883 76.9347 55.9207 76.7462 55.4697 76.2773L49.1157 69.8973L51.6583 67.3541L58.0106 73.7253ZM51.6583 62.2395L44.0339 54.5826L46.8442 51.7601L52.3427 37.405L68.7629 53.8961L54.4668 59.4134L51.6583 62.2395Z" fill="black"/>
<path d="M28.7878 69.8972L31.3287 67.3452L38.9532 75.0012L36.4123 77.5533L28.7878 69.8972Z" fill="black"/>
</svg>