<svg width="115" height="115" viewBox="0 0 115 115" fill="none" xmlns="http://www.w3.org/2000/svg">
<path d="M93.4375 115H21.5625C9.65294 115 0 105.347 0 93.4375V21.5625C0 9.65294 9.65294 0 21.5625 0H93.4375C105.347 0 115 9.65294 115 21.5625V93.4375C115 105.347 105.347 115 93.4375 115Z" fill="#FFF9DD"/>
<path d="M57.5 28.75C41.6484 28.75 28.75 41.6484 28.75 57.5C28.75 73.3516 41.6484 86.25 57.5 86.25C73.3516 86.25 86.25 73.3516 86.25 57.5C86.25 41.6484 73.3516 28.75 57.5 28.75ZM72.0724 51.4083L56.5007 66.9801C56.0339 67.4477 55.4189 67.6811 54.8082 67.6811C54.194 67.6811 53.5825 67.4477 53.1157 66.9801L45.3281 59.1925C44.3937 58.2581 44.3937 56.7419 45.3281 55.804C46.2625 54.8661 47.7786 54.8696 48.7165 55.804L54.8082 61.8948L68.6875 48.0164C69.6219 47.082 71.138 47.082 72.0759 48.0164C73.0138 48.9508 73.0068 50.4704 72.0724 51.4083Z" fill="#FFD200"/>
</svg>
